HIERARCHY
ROOT root
{
	OFFSET	0	13.1	24.9
	CHANNELS 6  Xposition Yposition Zposition Xrotation Yrotation Zrotation
	JOINT spine_1
	{
		OFFSET	0	9.99999	0
		CHANNELS 3  Xrotation Yrotation Zrotation
		JOINT spine_2
		{
			OFFSET	0	112	-10
			CHANNELS 3  Xrotation Yrotation Zrotation
			JOINT spine_3
			{
				OFFSET	0	206.5	19.3
				CHANNELS 3  Xrotation Yrotation Zrotation
				JOINT spine_4
				{
					OFFSET	0	110.4	14.6
					CHANNELS 3  Xrotation Yrotation Zrotation
					JOINT neck_1
					{
						OFFSET	0	71.8	-50.3
						CHANNELS 3  Xrotation Yrotation Zrotation
						JOINT neck_2
						{
							OFFSET	0	86.2	-25.8
							CHANNELS 3  Xrotation Yrotation Zrotation
							JOINT head_ee
							{
								OFFSET	0	179.8	-8.7
								CHANNELS 3  Xrotation Yrotation Zrotation
								End Site
								{
									OFFSET	1	0	0
								}
							}
						}
					}
					JOINT left_clavicle
					{
						OFFSET	-43.2	22.4	-70.8
						CHANNELS 3  Xrotation Yrotation Zrotation
						JOINT left_shoulder
						{
							OFFSET	-93.9	-5.79999	48.7
							CHANNELS 3  Xrotation Yrotation Zrotation
							JOINT left_elbow
							{
								OFFSET	-291.4	-30.8	15.2
								CHANNELS 3  Xrotation Yrotation Zrotation
								JOINT left_lowarm_twist
								{
									OFFSET	-110.7	-3.89999	13.6
									CHANNELS 3  Xrotation Yrotation Zrotation
									JOINT left_hand
									{
										OFFSET	-110.7	-3.89999	13.6
										CHANNELS 3  Xrotation Yrotation Zrotation
										JOINT left_ee
										{
											OFFSET	-80.8	-5.10001	12.1
											CHANNELS 3  Xrotation Yrotation Zrotation
											End Site
											{
												OFFSET	1	0	0
											}
										}
									}
								}
							}
						}
					}
					JOINT right_clavicle
					{
						OFFSET	43.2	22.4	-70.8
						CHANNELS 3  Xrotation Yrotation Zrotation
						JOINT right_shoulder
						{
							OFFSET	93.9	-5.79999	48.7
							CHANNELS 3  Xrotation Yrotation Zrotation
							JOINT right_elbow
							{
								OFFSET	291.4	-30.8	15.2
								CHANNELS 3  Xrotation Yrotation Zrotation
								JOINT right_lowarm_twist
								{
									OFFSET	110.7	-3.89999	13.6
									CHANNELS 3  Xrotation Yrotation Zrotation
									JOINT right_hand
									{
										OFFSET	110.7	-3.89999	13.6
										CHANNELS 3  Xrotation Yrotation Zrotation
										JOINT right_ee
										{
											OFFSET	80.8	-5.10001	12.1
											CHANNELS 3  Xrotation Yrotation Zrotation
											End Site
											{
												OFFSET	1	0	0
											}
										}
									}
								}
							}
						}
					}
				}
			}
		}
	}
	JOINT left_hip
	{
		OFFSET	-82.8	-127.5	0.300001
		CHANNELS 3  Xrotation Yrotation Zrotation
		JOINT left_knee
		{
			OFFSET	-28.2	-396.7	2.2
			CHANNELS 3  Xrotation Yrotation Zrotation
			JOINT left_ankle
			{
				OFFSET	-11.7	-411.3	35.4
				CHANNELS 3  Xrotation Yrotation Zrotation
				JOINT left_toes
				{
					OFFSET	0	-60	-88.6
					CHANNELS 3  Xrotation Yrotation Zrotation
					JOINT left_foot_ee
					{
						OFFSET	-22.5	-16.5	-42.2
						CHANNELS 3  Xrotation Yrotation Zrotation
						End Site
						{
							OFFSET	1	0	0
						}
					}
				}
			}
		}
	}
	JOINT right_hip
	{
		OFFSET	82.8	-127.5	0.300001
		CHANNELS 3  Xrotation Yrotation Zrotation
		JOINT right_knee
		{
			OFFSET	28.2	-396.7	2.2
			CHANNELS 3  Xrotation Yrotation Zrotation
			JOINT right_ankle
			{
				OFFSET	11.7	-411.3	35.4
				CHANNELS 3  Xrotation Yrotation Zrotation
				JOINT right_toes
				{
					OFFSET	0	-60	-88.6
					CHANNELS 3  Xrotation Yrotation Zrotation
					JOINT right_foot_ee
					{
						OFFSET	22.5	-16.5	-42.2
						CHANNELS 3  Xrotation Yrotation Zrotation
						End Site
						{
							OFFSET	1	0	0
						}
					}
				}
			}
		}
	}
}
MOTION
Frames: 5
Frame Time: 0.02
2892.40634316 693.958 -1857.50324513 8.62317298062 26.7285539491 -0.513426948297 -3.95777 -0.137814 -0.356411 -3.95771 -0.114855 -0.364458 -3.95684 -0.00935181 -0.382013 -3.95704 -0.0695658 -0.375742 1.5424 12.1013 7.71782 1.80757 14.8838 9.46269 -0.0 0.0 -0.0 9.58013 5.34294 18.4818 -8.68844 -25.0323 46.9419 0.83435 -22.4557 0.16563 7.7226 0.20739 -0.963932 0.439589 -6.40329 0.250408 -0.0 0.0 -0.0 9.07827 12.8776 -17.7461 -30.1617 41.6823 -51.1496 0.35133 9.87298 -0.030345 -2.1684 0.0814311 -0.264904 -2.98994 5.53743 23.1301 0.0 0.0 0.0 13.1917 -26.9626 0.580144 -44.65 -0.788782 6.63661 19.6653 10.5117 -2.69374 0.557046 -0.0 -0.0 -0.0 0.0 -0.0 16.1588 29.3761 -10.5973 -45.732 0.871097 -6.78131 20.7517 -23.705 2.94654 11.8513 -0.0 -0.0 0.0 0.0 0.0 
2876.71544952 695.932 -1863.0061239 7.36358743367 27.3121198902 -0.947614969129 -3.69472 -0.239457 -0.359495 -3.69467 -0.216096 -0.374004 -3.69311 -0.105913 -0.418758 -3.69331 -0.170718 -0.396776 0.681508 12.2461 8.75451 0.966084 14.4882 10.6338 -0.0 0.0 -0.0 9.60429 4.69979 18.5754 -7.70737 -25.3425 45.6279 1.00888 -26.554 0.238067 7.72049 0.207351 -0.963666 0.437702 -7.21995 -0.108947 -0.0 0.0 -0.0 8.87769 12.4767 -17.3232 -30.826 41.3142 -51.4369 0.360742 10.1321 -0.03198 -2.31256 0.0871998 -0.282405 -2.88518 5.37723 22.288 0.0 0.0 0.0 11.8978 -20.2783 0.289937 -39.8525 -0.457411 5.97763 20.193 9.25213 -2.75653 0.299307 -0.0 -0.0 -0.0 0.0 -0.0 16.6152 29.0319 -10.5248 -41.7143 0.579414 -6.23657 21.4568 -24.6598 3.05313 12.5852 -0.0 -0.0 0.0 0.0 0.0 
2858.94868047 698.079 -1867.67430304 7.02413693695 27.2617351759 -0.929166622033 -3.73934 -0.164117 -0.443017 -3.73924 -0.135595 -0.452562 -3.73797 -0.00666709 -0.472392 -3.73827 -0.081188 -0.46541 -0.413865 12.2788 9.53336 -0.111526 14.1918 11.5114 -0.0 0.0 -0.0 9.48676 4.6367 18.3485 -6.73766 -26.3084 45.4737 1.26487 -32.0691 0.363536 7.53144 0.203833 -0.939772 0.392246 -7.60284 -0.578594 -0.0 0.0 -0.0 8.67111 12.405 -16.8767 -31.3624 41.1866 -51.5205 0.446726 12.4784 -0.0488393 -2.35626 0.0889576 -0.287709 -2.80951 5.33889 21.7195 0.0 0.0 0.0 9.77781 -13.0794 -1.94004 -35.0649 -0.18301 5.29518 20.6233 7.54604 -2.80777 0.180591 -0.0 -0.0 -0.0 0.0 -0.0 16.9974 25.605 -9.83427 -38.8827 0.397222 -5.84125 20.8534 -24.9873 2.98033 13.244 -0.0 -0.0 0.0 0.0 0.0 
2846.07062775 701.268 -1873.25903663 6.33553007035 27.8761583828 -1.07163934262 -3.64486 -0.154923 -0.383824 -3.64479 -0.130185 -0.392904 -3.64374 -0.018458 -0.413498 -3.64397 -0.0835302 -0.405394 -0.826808 12.7141 9.89843 -0.503193 14.7899 11.9595 -0.0 0.0 -0.0 9.46264 4.20078 18.3298 -5.68511 -26.958 44.341 1.37505 -34.2593 0.42382 7.47071 0.202686 -0.932099 0.41821 -8.5519 -0.807402 -0.0 0.0 -0.0 8.74598 11.6725 -17.0648 -31.2961 40.9668 -52.027 0.466805 13.0205 -0.0532706 -2.21604 0.0833325 -0.270689 -2.69641 5.12366 20.7995 0.0 0.0 0.0 9.56013 -11.1866 -1.43033 -33.9006 -0.124989 5.12599 21.0473 6.49045 -2.85981 0.271101 -0.0 -0.0 -0.0 0.0 -0.0 16.8864 27.1341 -9.73855 -37.1235 0.293981 -5.59136 22.7117 -24.9159 3.21872 13.8679 -0.0 -0.0 0.0 0.0 0.0 
2790.70050344 703.772 -1876.00760708 3.82229662162 32.559160584 0.221672391991 -3.34143 -0.277878 -0.826439 -3.34108 -0.224728 -0.842445 -3.33713 0.00811067 -0.871864 -3.33817 -0.129681 -0.862204 -1.15021 12.3367 9.13837 -0.862548 14.8204 11.1289 -0.0 0.0 -0.0 10.8945 3.40288 21.2621 -1.60913 -27.4291 42.3285 1.7288 -40.5731 0.639082 4.06296 0.125329 -0.503725 -0.06792 -9.46889 -4.48492 -0.0 0.0 -0.0 8.95429 11.5528 -17.5206 -33.6891 39.2606 -51.3905 0.526633 14.6215 -0.0675645 -0.451271 0.0161187 -0.055377 -2.80925 2.10585 20.1605 0.0 0.0 0.0 1.36236 -3.15783 -0.677724 -17.4892 0.317077 2.65474 21.1749 6.27144 -2.87553 0.77708 -0.0 -0.0 -0.0 0.0 -0.0 24.5915 24.023 -9.10523 -11.4787 -0.299856 -1.73314 6.16322 -27.3278 0.939276 5.74344 -0.0 -0.0 0.0 0.0 0.0 
